HIERARCHY
ROOT ui
{
	 OFFSET 0 0 0
	 CHANNELS 3 XPosition YPosition Z Position
	 EndSite
	 {
	 OFFSET 0 -1 0
	 }
}
ROOT li
{
	 OFFSET 0 0 0
	 CHANNELS 3 XPosition YPosition Z Position
	 EndSite
	 {
	 OFFSET 0 -1 0
	 }
}
ROOT ul
{
	 OFFSET 0 0 0
	 CHANNELS 3 XPosition YPosition Z Position
	 EndSite
	 {
	 OFFSET 0 -1 0
	 }
}
ROOT ll
{
	 OFFSET 0 0 0
	 CHANNELS 3 XPosition YPosition Z Position
	 EndSite
	 {
	 OFFSET 0 -1 0
	 }
}
ROOT tt
{
	 OFFSET 0 0 0
	 CHANNELS 3 XPosition YPosition Z Position
	 EndSite
	 {
	 OFFSET 0 -1 0
	 }
}
ROOT tb
{
	 OFFSET 0 0 0
	 CHANNELS 3 XPosition YPosition Z Position
	 EndSite
	 {
	 OFFSET 0 -1 0
	 }
}
ROOT td
{
	 OFFSET 0 0 0
	 CHANNELS 3 XPosition YPosition Z Position
	 EndSite
	 {
	 OFFSET 0 -1 0
	 }
}
ROOT v
{
	 OFFSET 0 0 0
	 CHANNELS 3 XPosition YPosition Z Position
	 EndSite
	 {
	 OFFSET 0 -1 0
	 }
}
ROOT bn
{
	 OFFSET 0 0 0
	 CHANNELS 3 XPosition YPosition Z Position
	 EndSite
	 {
	 OFFSET 0 -1 0
	 }
}
MOTION
Frames: 18
Frame Time: 0.002
-9.919869899749755E-4	1.8310999497771263E-5	0		0.5108892822265625	-2.479172607421875	0		-1.0301556396484375	-0.09288562774658203	0		-0.7041795654296875	-2.4778837890625	0		1.474369873046875	-1.168412109375	0		2.888596923828125	-0.13697138977050782	0		4.5789130859375	0.3051818542480469	0		5.5593056640625	-0.007368731021881104	0		-0.27135165405273437	5.8386015625	0		
0.07148296356201173	-0.0047492489814758305	0		0.53536328125	-2.484374267578125	0		-1.0306282958984374	-0.09279835510253906	0		-0.7426424560546875	-2.477348876953125	0		1.4329267578125	-1.1658353271484374	0		2.923110107421875	-0.1382836608886719	0		4.57520458984375	0.28532275390625	0		5.55393896484375	0.0017966669797897339	0		-0.28695883178710935	5.8288681640625	0		
-0.0019225599765777589	2.1178500354290008E-4	0		0.52599755859375	-2.47616650390625	0		-1.0351328125	-0.09664679718017578	0		-0.7039056396484376	-2.46070458984375	0		1.4734415283203126	-1.1682158203125	0		2.883608154296875	-0.14172505187988282	0		4.56982958984375	0.29247897338867185	0		5.55429296875	-0.01411717414855957	0		-0.28740985107421874	5.82897119140625	0		
0.06755431365966796	-0.008495060920715333	0		0.5344650268554687	-2.48415869140625	0		-1.0355574951171875	-0.09652507781982422	0		-0.7475874633789062	-2.481077392578125	0		1.4340841064453125	-1.1616495361328125	0		2.901170166015625	-0.14283660888671876	0		4.56824267578125	0.27858251953125	0		5.55792724609375	-0.009079189300537109	0		-0.2717088928222656	5.836900390625	0		
3.0711999535560605E-4	0.003422230005264282	0		0.5190128173828125	-2.487857177734375	0		-1.0318929443359375	-0.09243215179443359	0		-0.7310182495117188	-2.48314013671875	0		1.441796630859375	-1.1526287841796874	0		2.93773779296875	-0.14717105102539063	0		4.57668701171875	0.2635617980957031	0		5.57062744140625	-0.002158447027206421	0		-0.2569150085449219	5.84685546875	0		
-2.9008999466896057E-5	0.0035676500797271727	0		0.5148292236328125	-2.47167333984375	0		-1.03223046875	-0.09227165985107422	0		-0.7382369995117187	-2.46990234375	0		1.4434788818359374	-1.1495281982421874	0		2.923353271484375	-0.1509032287597656	0		4.57853125	0.27861578369140627	0		5.57029150390625	-0.002094364881515503	0		-0.25815396118164063	5.8480166015625	0		
-0.0033572869300842285	7.657539844512939E-4	0		0.5264756469726563	-2.472662353515625	0		-1.036572265625	-0.0960417251586914	0		-0.737377197265625	-2.452738525390625	0		1.42236572265625	-1.1321468505859376	0		2.90199951171875	-0.15554898071289064	0		4.57808984375	0.26569061279296874	0		5.56183349609375	-0.01594416427612305	0		-0.2875681457519531	5.82852783203125	0		
-0.0036101980209350586	9.464250206947327E-4	0		0.5330321655273438	-2.48357666015625	0		-1.03682763671875	-0.09583601379394531	0		-0.7449730224609376	-2.47645556640625	0		1.4220853271484375	-1.132000732421875	0		2.912564697265625	-0.1705677947998047	0		4.5686787109375	0.25186773681640623	0		5.5566630859375	-0.008839674949645996	0		-0.2876798400878906	5.82871533203125	0		
-0.00786037302017212	-0.0018064179420471192	0		0.5327447509765625	-2.483392822265625	0		-1.0370452880859375	-0.09560635375976563	0		-0.7769733276367188	-2.451856689453125	0		1.40389794921875	-1.1266297607421876	0		2.926272705078125	-0.17661903381347657	0		4.5715419921875	0.2578977966308594	0		5.5564482421875	-0.008802449226379395	0		-0.30667584228515626	5.83314794921875	0		
-0.004002981185913086	0.0013648550510406495	0		0.4815693054199219	-2.4755859375	0		-1.0372264404296876	-0.0953523178100586	0		-0.7325946044921875	-2.48214453125	0		1.408752685546875	-1.1205185546875	0		2.924243408203125	-0.163476806640625	0		4.5652900390625	0.2510330963134766	0		5.551353515625	-0.0017135039567947388	0		-0.2725985107421875	5.83797265625	0		
-0.0041436548233032226	0.001603775978088379	0		0.5362938232421876	-2.479021728515625	0		-1.0333233642578126	-0.09112174224853516	0		-0.730806884765625	-2.479901611328125	0		1.4106046142578126	-1.11735791015625	0		2.93591650390625	-0.17849244689941407	0		4.58107421875	0.24390615844726563	0		5.5602119140625	-0.0017952760457992554	0		-0.27251507568359373	5.8382216796875	0		
-0.0042455787658691405	0.0018631069660186767	0		0.5071011047363281	-2.477438232421875	0		-1.0374769287109376	-0.09477073669433594	0		-0.7756512451171875	-2.449074951171875	0		1.43144189453125	-1.1184097900390626	0		2.9299033203125	-0.17028607177734376	0		4.56199560546875	0.2451991729736328	0		5.5560263671875	-0.008722681045532227	0		-0.28648910522460935	5.82866064453125	0		
0.017643842697143555	-0.002121196985244751	0		0.5318656616210937	-2.482481689453125	0		-1.041577880859375	-0.09739563751220703	0		-0.7481620483398438	-2.477094482421875	0		1.40442822265625	-1.1098712158203126	0		2.921702880859375	-0.18104255676269532	0		4.58076416015625	0.23004428100585939	0		5.56496435546875	-0.008803611755371093	0		-0.3062237548828125	5.834193359375	0		
-0.00836026954650879	-5.081920027732849E-4	0		0.4787935485839844	-2.476567626953125	0		-1.037564697265625	-0.09409432220458984	0		-0.7482981567382813	-2.4767587890625	0		1.4253316650390624	-1.1118912353515624	0		2.92167626953125	-0.18088169860839845	0		4.57467333984375	0.22319895935058592	0		5.55103125	-0.0016003270149230957	0		-0.3049757080078125	5.83349609375	0		
0.0686471176147461	-0.0021200010776519776	0		0.5336578369140625	-2.479936279296875	0		-1.0316051025390625	-0.09879547119140625	0		-0.7334429931640625	-2.4805830078125	0		1.4004136962890625	-1.102337646484375	0		2.976615966796875	-0.18736912536621095	0		4.5796240234375	0.21623704528808593	0		5.56414013671875	0.005292283058166504	0		-0.25451287841796877	5.84622509765625	0		
-0.0011987249851226807	0.006069282054901123	0		0.4956537780761719	-2.475158447265625	0		-1.033436279296875	-0.08938056182861329	0		-0.6955014038085937	-2.48066845703125	0		1.441385009765625	-1.1055621337890624	0		2.925808349609375	-0.17555134582519533	0		4.5747841796875	0.22341830444335936	0		5.56420458984375	0.005365818977355957	0		-0.13700569152832032	5.859154296875	0		
-0.004142643928527832	0.003468703031539917	0		0.533579345703125	-2.47928271484375	0		-1.037396728515625	-0.09292090606689453	0		-0.7464473266601562	-2.4736513671875	0		1.3945513916015626	-1.094693359375	0		2.92957470703125	-0.20137164306640626	0		4.58671484375	0.20942283630371095	0		5.5602119140625	-0.0014807389974594116	0		-0.26990008544921873	5.83914892578125	0		
-0.004036204814910889	0.0038517489433288576	0		0.4956898498535156	-2.469458251953125	0		-1.0413310546875	-0.09544321441650391	0		-0.7452291870117187	-2.455249267578125	0		1.43556982421875	-1.0978740234375	0		2.9237705078125	-0.19304457092285157	0		4.5758310546875	0.20973898315429687	0		5.56031787109375	-0.0013421859741210938	0		-0.28365875244140626	5.82971630859375	0		
